<?xml version="1.0" encoding="UTF-8"?>
<svg xmlns="http://www.w3.org/2000/svg" width="688" height="718" viewBox="0 0 688 718" fill="none">
  <path opacity="0.3" d="M131.219 298.435C154.195 328.566 185.676 351.05 211.006 379.212C243.285 415.08 264.82 459.351 281.824 504.524C303.006 560.806 321.057 624.026 370.795 657.768C413.57 686.786 470.532 686.179 520.146 671.765C749.813 605.029 639.954 215.839 471.739 114.64C382.189 60.7663 161.69 -19.207 101.797 123.803C99.1332 130.191 97.1558 136.893 95.7153 143.653C84.6807 195.311 99.3016 256.532 131.219 298.435Z" fill="url(#paint0_linear_0_3661)"></path>
  <path d="M148.652 277.305C148.652 277.305 67.0406 129.065 145.126 105.975C210.697 86.5854 196.948 215.612 267.983 244.167L148.652 277.305Z" fill="url(#paint1_linear_0_3661)"></path>
  <path d="M152 145.105C152 145.105 161.343 211.205 204.175 261.97" stroke="#007AFF" stroke-width="1.5" stroke-miterlimit="10" stroke-linecap="round" stroke-linejoin="round"></path>
  <path d="M473.268 467.911C473.268 467.911 593.347 348.679 524.934 304.519C467.485 267.436 444.314 395.108 368.111 402.487L473.268 467.911Z" fill="url(#paint2_linear_0_3661)"></path>
  <path d="M507.31 340.126C507.31 340.126 479.719 400.914 424.316 437.55" stroke="#007AFF" stroke-width="1.5" stroke-miterlimit="10" stroke-linecap="round" stroke-linejoin="round"></path>
  <path d="M129.753 436.677C129.753 436.677 -51.6834 262.593 48.8334 195.242C133.241 138.687 170.915 327.777 284.317 336.8L129.753 436.677Z" fill="url(#paint3_linear_0_3661)"></path>
  <path d="M75.9229 247.695C75.9229 247.695 118.463 337.305 201.707 390.324" stroke="#007AFF" stroke-width="1.5" stroke-miterlimit="10" stroke-linecap="round" stroke-linejoin="round"></path>
  <path d="M446.486 626.15C446.486 626.15 669.628 510.253 592.166 417.305C527.118 339.255 437.682 510.064 326.334 486.762L446.486 626.15Z" fill="url(#paint4_linear_0_3661)"></path>
  <path d="M551.393 459.998C551.393 459.998 485.324 533.987 390.512 561.398" stroke="#007AFF" stroke-width="1.5" stroke-miterlimit="10" stroke-linecap="round" stroke-linejoin="round"></path>
  <path d="M207.486 331.083C207.486 330.44 208.009 329.902 208.667 329.902H209.25V371.964H208.667C208.024 371.964 207.486 371.441 207.486 370.784V331.068V331.083Z" fill="#001F3E"></path>
  <path d="M207.486 277.677C207.486 277.034 208.009 276.496 208.667 276.496H209.25V318.558H208.667C208.024 318.558 207.486 318.035 207.486 317.377V277.662V277.677Z" fill="#001F3E"></path>
  <path d="M206.514 237.781C206.514 237.139 207.037 236.601 207.695 236.601H209.264V257.333H207.695C207.052 257.333 206.514 256.81 206.514 256.152V237.766V237.781Z" fill="#001F3E"></path>
  <path d="M477.631 305.659H478.214C478.857 305.659 479.395 306.182 479.395 306.84V370.8C479.395 371.443 478.871 371.981 478.214 371.981H477.631V305.674V305.659Z" fill="#001F3E"></path>
  <path d="M209.25 236.795V257.438" stroke="#001F3E" stroke-width="0.13"></path>
  <path d="M209.25 276.706V318.469" stroke="#001F3E" stroke-width="0.13"></path>
  <path d="M428.528 129.996L258.352 129.996C231.233 129.996 209.25 151.979 209.25 179.098L209.25 635.264C209.25 662.382 231.233 684.366 258.352 684.366H428.528C455.647 684.366 477.631 662.382 477.631 635.264L477.631 179.098C477.631 151.979 455.647 129.996 428.528 129.996Z" fill="#001F3E"></path>
  <path d="M425.793 136.647L261.087 136.647C236.132 136.647 215.901 156.878 215.901 181.834L215.901 632.529C215.901 657.484 236.132 677.715 261.087 677.715H425.793C450.749 677.715 470.979 657.484 470.979 632.529L470.979 181.834C470.979 156.878 450.749 136.647 425.793 136.647Z" fill="white" stroke="#001F3E" stroke-width="5.23"></path>
  <path d="M265.586 681.332L269.503 681.436V684.366H265.586V681.332Z" fill="#001F3E"></path>
  <path d="M474.701 188.29H477.631V192.206H474.701V188.29Z" fill="#001F3E"></path>
  <path d="M474.701 623.919H477.631V627.835H474.597L474.701 623.919Z" fill="#001F3E"></path>
  <path d="M372.58 132.925C372.476 134.241 371.384 135.272 370.039 135.272H316.826C315.481 135.272 314.39 134.241 314.285 132.925H372.565H372.58Z" fill="#001F3E" stroke="#001F3E" stroke-width="0.26"></path>
  <path d="M417.781 129.997H421.697V133.031L417.781 132.837V129.997Z" fill="#001F3E"></path>
  <path d="M209.25 189.068H212.18L212.075 192.879L209.235 192.984V189.068H209.25Z" fill="#001F3E"></path>
  <path d="M209.25 623.919H212.09L212.195 627.835H209.265V623.919H209.25Z" fill="#001F3E"></path>
  <path d="M315.377 148.381H370.533C376.751 148.381 381.773 153.418 381.773 159.621C381.773 165.839 376.736 170.862 370.533 170.862H315.377C309.159 170.862 304.136 165.825 304.136 159.621C304.136 153.403 309.174 148.381 315.377 148.381Z" fill="#001F3E"></path>
  <path d="M367.499 163.941C369.875 163.941 371.893 162.057 371.893 159.636C371.893 157.214 369.875 155.331 367.499 155.331C365.122 155.331 363.104 157.214 363.104 159.636C363.104 162.057 365.122 163.941 367.499 163.941Z" fill="#001F3E" fill-opacity="0.38" stroke="#001F3E" stroke-width="1.96"></path>
  <mask id="mask0_0_3661" style="mask-type:luminance" maskUnits="userSpaceOnUse" x="219" y="136" width="249" height="538">
    <path d="M259.667 136.796L427.168 136.796C449.186 136.796 467.048 155.077 467.048 177.632L467.048 633.096C467.048 655.651 449.201 673.932 427.168 673.932H259.667C237.65 673.932 219.788 655.651 219.788 633.096L219.788 177.632C219.788 155.077 237.635 136.796 259.667 136.796Z" fill="white"></path>
  </mask>
  <g mask="url(#mask0_0_3661)">
    <rect width="72.5696" height="72.5696" rx="6" transform="matrix(1 0 0 -1 230.204 257.469)" fill="#DDEEFE"></rect>
    <rect width="72.5696" height="72.5696" rx="6" transform="matrix(1 0 0 -1 230.204 334.646)" fill="#DDEEFE"></rect>
    <rect width="226.924" height="154.354" rx="6" transform="matrix(1 0 0 -1 230.204 503.976)" fill="#DDEEFE"></rect>
    <rect width="92.1519" height="92.1519" rx="6" transform="matrix(1 0 0 -1 241.723 449.836)" fill="white"></rect>
    <rect width="203.886" height="27.6456" rx="13.8228" transform="matrix(1 0 0 -1 241.723 489.001)" fill="white"></rect>
    <rect width="101.367" height="21.8861" rx="6" transform="matrix(1 0 0 -1 344.242 391.089)" fill="white"></rect>
    <rect width="101.367" height="9.21519" rx="4.60759" transform="matrix(1 0 0 -1 344.242 410.672)" fill="white"></rect>
    <rect width="101.367" height="9.21519" rx="4.60759" transform="matrix(1 0 0 -1 344.242 425.646)" fill="white"></rect>
    <rect width="59.8987" height="9.21519" rx="4.60759" transform="matrix(1 0 0 -1 344.242 440.621)" fill="white"></rect>
    <rect width="226.924" height="108.278" rx="6" transform="matrix(1 0 0 -1 230.204 621.469)" fill="#DDEEFE"></rect>
    <rect width="92.1519" height="92.1519" rx="6" transform="matrix(1 0 0 -1 241.723 613.406)" fill="white"></rect>
    <rect width="101.367" height="21.8861" rx="6" transform="matrix(1 0 0 -1 344.242 554.659)" fill="white"></rect>
    <rect width="101.367" height="9.21519" rx="4.60759" transform="matrix(1 0 0 -1 344.242 574.241)" fill="white"></rect>
    <rect width="101.367" height="9.21519" rx="4.60759" transform="matrix(1 0 0 -1 344.242 589.216)" fill="white"></rect>
    <rect width="59.8987" height="9.21519" rx="4.60759" transform="matrix(1 0 0 -1 344.242 604.191)" fill="white"></rect>
    <rect width="72.5696" height="72.5696" rx="6" transform="matrix(1 0 0 -1 307.381 257.469)" fill="#DDEEFE"></rect>
    <rect width="72.5696" height="72.5696" rx="6" transform="matrix(1 0 0 -1 307.381 334.646)" fill="#DDEEFE"></rect>
    <rect width="72.5696" height="72.5696" rx="6" transform="matrix(1 0 0 -1 384.558 257.469)" fill="#DDEEFE"></rect>
    <rect width="72.5696" height="72.5696" rx="6" transform="matrix(1 0 0 -1 384.558 334.646)" fill="#DDEEFE"></rect>
    <rect opacity="0.2" x="401.789" y="635.494" width="24.742" height="24.742" rx="12.371" fill="#007AFF"></rect>
    <rect opacity="0.2" x="330.971" y="635.494" width="24.742" height="24.742" rx="12.371" fill="#007AFF"></rect>
    <rect opacity="0.2" x="260.153" y="635.494" width="24.742" height="24.742" rx="12.371" fill="#007AFF"></rect>
  </g>
  <rect x="77.0024" y="229.824" width="186.216" height="275.378" rx="10" fill="#001F3E"></rect>
  <path d="M196.918 433.582H102.774C99.4925 433.582 96.8323 430.856 96.8323 427.493C96.8323 424.13 99.4925 421.403 102.774 421.403H196.918C200.2 421.403 202.86 424.13 202.86 427.493C202.852 430.856 200.192 433.582 196.918 433.582Z" fill="#DDEEFE"></path>
  <rect x="96.8323" y="450.059" width="146.862" height="35.1037" rx="17.5518" fill="#007AFF"></rect>
  <path d="M238.173 409.941H102.353C99.3065 409.941 96.8323 407.251 96.8323 403.938V403.048C96.8323 399.735 99.3065 397.045 102.353 397.045H238.173C241.22 397.045 243.695 399.735 243.695 403.048V403.938C243.695 407.251 241.22 409.941 238.173 409.941Z" fill="#DDEEFE"></path>
  <rect x="96.5847" y="250.558" width="145.139" height="133.62" rx="10" fill="#DDEEFE"></rect>
  <rect x="492" y="398.78" width="195.823" height="78.3291" rx="10" fill="#007AFF"></rect>
  <path d="M622.06 451.767H570.434C567.831 451.767 565.722 449.705 565.722 447.16C565.722 444.615 567.831 442.552 570.434 442.552H622.06C624.663 442.552 626.772 444.615 626.772 447.16C626.766 449.705 624.656 451.767 622.06 451.767Z" fill="white"></path>
  <path d="M670.735 433.337H570.139C567.701 433.337 565.722 431.415 565.722 429.048V428.411C565.722 426.044 567.701 424.122 570.139 424.122H670.735C673.173 424.122 675.152 426.044 675.152 428.411V429.048C675.152 431.415 673.173 433.337 670.735 433.337Z" fill="white"></path>
  <rect opacity="0.2" x="503.519" y="410.299" width="55.2911" height="55.2911" rx="6" fill="white"></rect>
  <path d="M565.668 412.603L533.236 447.076L518.494 431.407" stroke="white" stroke-width="7.58549" stroke-linecap="round" stroke-linejoin="round"></path>
  <rect x="404" y="487.844" width="195.823" height="78.3291" rx="10" fill="#FFC501"></rect>
  <path d="M534.06 540.831H482.434C479.831 540.831 477.722 538.769 477.722 536.224C477.722 533.679 479.831 531.616 482.434 531.616H534.06C536.663 531.616 538.772 533.679 538.772 536.224C538.766 538.769 536.656 540.831 534.06 540.831Z" fill="white"></path>
  <path d="M582.735 522.401H482.139C479.701 522.401 477.722 520.479 477.722 518.112V517.475C477.722 515.108 479.701 513.186 482.139 513.186H582.735C585.173 513.186 587.152 515.108 587.152 517.475V518.112C587.152 520.479 585.173 522.401 582.735 522.401Z" fill="white"></path>
  <rect opacity="0.2" x="415.519" y="499.363" width="55.2911" height="55.2911" rx="6" fill="white"></rect>
  <path d="M477.668 501.667L445.236 536.14L430.494 520.471" stroke="white" stroke-width="7.58549" stroke-linecap="round" stroke-linejoin="round"></path>
  <rect x="133.445" y="566.184" width="113.903" height="108.442" rx="13.5907" fill="#007AFF"></rect>
  <path d="M190.552 647.632C175.41 647.632 163.09 635.313 163.09 620.171C163.09 605.028 175.41 592.709 190.552 592.709C205.694 592.709 218.014 605.028 218.014 620.171C218.014 635.313 205.694 647.632 190.552 647.632ZM190.552 597.31C177.939 597.31 167.692 607.558 167.692 620.171C167.692 632.783 177.939 643.031 190.552 643.031C203.164 643.031 213.412 632.783 213.412 620.171C213.412 607.576 203.164 597.31 190.552 597.31Z" fill="white"></path>
  <path fill-rule="evenodd" clip-rule="evenodd" d="M181.954 630.748V611.004C181.954 608.896 184.246 607.595 186.061 608.658L202.706 618.539C204.484 619.602 204.484 622.169 202.706 623.214L186.061 633.095C184.246 634.176 181.954 632.856 181.954 630.748Z" fill="white"></path>
  <rect x="427.177" y="198.723" width="114.581" height="109.087" rx="13.5907" fill="#21B18A"></rect>
  <path d="M480.011 226.729C480.011 229.879 478.76 232.901 476.532 235.128C474.304 237.356 471.283 238.608 468.132 238.608C464.982 238.608 461.96 237.356 459.733 235.128C457.505 232.901 456.253 229.879 456.253 226.729C456.253 223.578 457.505 220.557 459.733 218.329C461.96 216.101 464.982 214.85 468.132 214.85C471.283 214.85 474.304 216.101 476.532 218.329C478.76 220.557 480.011 223.578 480.011 226.729ZM500.087 245.987C499.641 245.764 499.137 245.686 498.645 245.765C498.153 245.845 497.698 246.077 497.345 246.429L479.717 268.809L467.078 255.637C466.621 255.333 466.074 255.197 465.528 255.25C464.983 255.304 464.472 255.545 464.084 255.932L446.76 276.62V286.123C446.76 287.384 447.26 288.592 448.151 289.483C449.043 290.374 450.251 290.875 451.511 290.875H518.034C518.657 290.875 519.275 290.752 519.852 290.513C520.428 290.274 520.952 289.924 521.393 289.483C521.835 289.042 522.185 288.518 522.423 287.942C522.662 287.365 522.785 286.747 522.785 286.123V264.741L500.087 245.987Z" fill="white"></path>
  <defs>
    <linearGradient id="paint0_linear_0_3661" x1="148.978" y1="105.323" x2="625.872" y2="558.857" gradientUnits="userSpaceOnUse">
      <stop stop-color="#9BC1F9"></stop>
      <stop offset="1" stop-color="#9BC1F9" stop-opacity="0"></stop>
    </linearGradient>
    <linearGradient id="paint1_linear_0_3661" x1="188.514" y1="27.4085" x2="131.811" y2="242.842" gradientUnits="userSpaceOnUse">
      <stop stop-color="#007AFF"></stop>
      <stop offset="1" stop-color="#007AFF" stop-opacity="0"></stop>
    </linearGradient>
    <linearGradient id="paint2_linear_0_3661" x1="505.446" y1="216.91" x2="499.138" y2="439.591" gradientUnits="userSpaceOnUse">
      <stop stop-color="#007AFF"></stop>
      <stop offset="1" stop-color="#007AFF" stop-opacity="0"></stop>
    </linearGradient>
    <linearGradient id="paint3_linear_0_3661" x1="75.5559" y1="64.5863" x2="90.5965" y2="395.261" gradientUnits="userSpaceOnUse">
      <stop stop-color="#007AFF"></stop>
      <stop offset="1" stop-color="#007AFF" stop-opacity="0"></stop>
    </linearGradient>
    <linearGradient id="paint4_linear_0_3661" x1="603.348" y1="284.414" x2="495.727" y2="597.447" gradientUnits="userSpaceOnUse">
      <stop stop-color="#007AFF"></stop>
      <stop offset="1" stop-color="#007AFF" stop-opacity="0"></stop>
    </linearGradient>
  </defs>
</svg>
